<svg xmlns="http://www.w3.org/2000/svg" width="980" height="760" viewBox="0 0 980 760" fill="none">
  <defs>
    <linearGradient id="g1" x1="160" y1="80" x2="860" y2="680" gradientUnits="userSpaceOnUse">
      <stop stop-color="#7C5CFF" stop-opacity=".85"/>
      <stop offset=".55" stop-color="#3AB8FF" stop-opacity=".75"/>
      <stop offset="1" stop-color="#2EE9A6" stop-opacity=".75"/>
    </linearGradient>
    <radialGradient id="r1" cx="0" cy="0" r="1" gradientUnits="userSpaceOnUse" gradientTransform="translate(380 240) rotate(40) scale(460 320)">
      <stop stop-color="#7C5CFF" stop-opacity=".35"/>
      <stop offset="1" stop-color="#000" stop-opacity="0"/>
    </radialGradient>
    <radialGradient id="r2" cx="0" cy="0" r="1" gradientUnits="userSpaceOnUse" gradientTransform="translate(650 420) rotate(20) scale(520 360)">
      <stop stop-color="#2EE9A6" stop-opacity=".22"/>
      <stop offset="1" stop-color="#000" stop-opacity="0"/>
    </radialGradient>
  </defs>

  <rect x="40" y="40" width="900" height="680" rx="34" fill="rgba(255,255,255,0.03)" stroke="rgba(255,255,255,0.08)"/>
  <rect x="80" y="90" width="820" height="580" rx="28" fill="url(#r1)"/>
  <rect x="80" y="90" width="820" height="580" rx="28" fill="url(#r2)"/>

  <!-- Left: US -->
  <g opacity=".95">
    <rect x="130" y="170" width="310" height="380" rx="24" fill="rgba(255,255,255,0.04)" stroke="rgba(255,255,255,0.09)"/>
    <circle cx="190" cy="230" r="16" fill="url(#g1)"/>
    <text x="220" y="238" font-family="ui-sans-serif, system-ui" font-size="18" fill="rgba(234,240,255,0.9)">US Client</text>

    <rect x="165" y="270" width="240" height="14" rx="7" fill="rgba(255,255,255,0.10)"/>
    <rect x="165" y="298" width="210" height="14" rx="7" fill="rgba(255,255,255,0.08)"/>
    <rect x="165" y="326" width="265" height="14" rx="7" fill="rgba(255,255,255,0.06)"/>

    <rect x="165" y="380" width="122" height="42" rx="14" fill="rgba(124,92,255,0.18)" stroke="rgba(124,92,255,0.45)"/>
    <text x="184" y="407" font-family="ui-sans-serif, system-ui" font-size="14" fill="rgba(234,240,255,0.92)">Request</text>

    <rect x="300" y="380" width="130" height="42" rx="14" fill="rgba(46,233,166,0.16)" stroke="rgba(46,233,166,0.42)"/>
    <text x="320" y="407" font-family="ui-sans-serif, system-ui" font-size="14" fill="rgba(234,240,255,0.92)">Timeline</text>
  </g>

  <!-- Right: China execution -->
  <g opacity=".95">
    <rect x="540" y="170" width="310" height="380" rx="24" fill="rgba(255,255,255,0.04)" stroke="rgba(255,255,255,0.09)"/>
    <circle cx="600" cy="230" r="16" fill="url(#g1)"/>
    <text x="630" y="238" font-family="ui-sans-serif, system-ui" font-size="18" fill="rgba(234,240,255,0.9)">China Execution</text>

    <rect x="575" y="270" width="240" height="14" rx="7" fill="rgba(255,255,255,0.10)"/>
    <rect x="575" y="298" width="260" height="14" rx="7" fill="rgba(255,255,255,0.08)"/>
    <rect x="575" y="326" width="220" height="14" rx="7" fill="rgba(255,255,255,0.06)"/>

    <rect x="575" y="372" width="260" height="60" rx="18" fill="rgba(255,255,255,0.03)" stroke="rgba(255,255,255,0.10)"/>
    <text x="595" y="400" font-family="ui-sans-serif, system-ui" font-size="14" fill="rgba(234,240,255,0.88)">Follow-up • QC • Reporting</text>
    <text x="595" y="420" font-family="ui-sans-serif, system-ui" font-size="12" fill="rgba(168,180,214,0.95)">Evidence: photos / updates</text>
  </g>

  <!-- Connection -->
  <path d="M445 360 C500 320, 520 320, 535 360" stroke="url(#g1)" stroke-width="6" stroke-linecap="round"/>
  <path d="M445 420 C500 460, 520 460, 535 420" stroke="url(#g1)" stroke-width="6" stroke-linecap="round" opacity=".75"/>

  <!-- bottom chips -->
  <g opacity=".92">
    <rect x="250" y="590" width="480" height="70" rx="24" fill="rgba(255,255,255,0.03)" stroke="rgba(255,255,255,0.08)"/>
    <rect x="280" y="612" width="140" height="28" rx="14" fill="rgba(124,92,255,0.18)" stroke="rgba(124,92,255,0.45)"/>
    <text x="298" y="631" font-family="ui-sans-serif, system-ui" font-size="12" fill="rgba(234,240,255,0.92)">Sourcing</text>

    <rect x="438" y="612" width="120" height="28" rx="14" fill="rgba(58,184,255,0.16)" stroke="rgba(58,184,255,0.42)"/>
    <text x="458" y="631" font-family="ui-sans-serif, system-ui" font-size="12" fill="rgba(234,240,255,0.92)">QC</text>

    <rect x="572" y="612" width="130" height="28" rx="14" fill="rgba(46,233,166,0.16)" stroke="rgba(46,233,166,0.42)"/>
    <text x="590" y="631" font-family="ui-sans-serif, system-ui" font-size="12" fill="rgba(234,240,255,0.92)">Logistics</text>
  </g>
</svg>
